<svg width="116" height="33" viewBox="0 0 116 33" fill="none" xmlns="http://www.w3.org/2000/svg">
<path d="M26.1508 29.9926C25.0639 29.9926 24.0426 29.5686 23.2748 28.8022C22.5055 28.0344 22.083 27.0146 22.083 25.9277C22.083 24.8408 22.5055 23.8224 23.2719 23.0546C24.0397 22.2868 25.0625 21.8628 26.1479 21.8628C27.2333 21.8628 28.2546 22.2853 29.021 23.0531C30.6061 24.6383 30.6061 27.2185 29.021 28.8037C28.2532 29.5715 27.2333 29.9926 26.1493 29.9926H26.1508Z" fill="#0095F5"/>
<path d="M4.0678 8.31629C2.98091 8.31629 1.95959 7.89232 1.19178 7.12451C0.423972 6.35815 0 5.33683 0 4.24995C0 3.16307 0.422515 2.14466 1.18887 1.37831C1.95814 0.609038 2.97946 0.186523 4.06634 0.186523C5.15322 0.186523 6.17163 0.609038 6.93944 1.37685C7.70871 2.14466 8.13122 3.16598 8.13122 4.25286C8.13122 5.33975 7.70871 6.35961 6.93944 7.12888C6.17163 7.89669 5.15176 8.3192 4.06634 8.3192L4.0678 8.31629Z" fill="#0095F5"/>
<path d="M25.9701 8.19666C24.8832 8.19666 23.8619 7.77269 23.0941 7.00633C21.5089 5.42118 21.5075 2.84238 23.0912 1.25868C23.859 0.490866 24.8803 0.0668945 25.9672 0.0668945C27.0541 0.0668945 28.0739 0.48941 28.8417 1.25722C30.4269 2.84238 30.4269 5.42118 28.8417 7.00925C28.0739 7.7756 27.0541 8.19812 25.9686 8.19812L25.9701 8.19666Z" fill="#003E99"/>
<path d="M4.17231 29.9926C3.08543 29.9926 2.06411 29.5687 1.29629 28.8023C0.528483 28.0345 0.105969 27.0146 0.107426 25.9278C0.107426 24.8423 0.531397 23.821 1.29921 23.0532C1.45947 22.8915 1.64159 22.7429 1.87179 22.5884C1.94172 22.5404 2.00583 22.501 2.07139 22.4617C2.22146 22.3757 2.37152 22.297 2.51139 22.2329C2.58715 22.1994 2.66582 22.163 2.74887 22.1324C2.89457 22.0785 3.05774 22.0304 3.24423 21.9853C3.28211 21.9751 3.31417 21.9663 3.34768 21.9576C3.36807 21.9517 3.38847 21.9445 3.41032 21.9401L4.31509 21.8789C4.43019 21.8833 4.55257 21.8978 4.6837 21.9153L4.73469 21.9226C4.76529 21.927 4.80754 21.9299 4.84833 21.9313L4.88476 21.9343L4.92555 21.943H4.96197C5.02754 21.9459 5.09456 21.9474 5.16012 21.9474C6.72051 21.9474 8.2605 21.283 9.38527 20.1247C10.5057 18.9723 11.1234 17.4221 11.0782 15.8704V15.8238L11.068 15.7757C11.0593 15.732 11.0578 15.6883 11.0535 15.6446C11.0491 15.5922 11.0447 15.5412 11.0389 15.4887L11.0287 15.3969C11.02 15.3183 11.0112 15.2425 11.0054 15.1638L11.0753 14.2562C11.0797 14.2328 11.0884 14.2124 11.0943 14.1906L11.1103 14.1352C11.1525 13.9633 11.1963 13.7899 11.2618 13.6238C11.2953 13.5291 11.3274 13.4592 11.3623 13.3864C11.4352 13.2275 11.5095 13.0833 11.5984 12.9362C11.6362 12.8721 11.6741 12.8065 11.7178 12.7438C11.8825 12.5049 12.0311 12.3213 12.187 12.1669C12.9548 11.3991 13.9761 10.9766 15.063 10.9766C16.1499 10.9766 17.1712 11.3991 17.939 12.1654C19.5227 13.7506 19.5212 16.3308 17.9361 17.916C17.7758 18.0763 17.5937 18.2234 17.3635 18.3822C17.2965 18.4288 17.2324 18.4667 17.1668 18.5046C17.0211 18.592 16.874 18.6692 16.7268 18.7377C16.6481 18.7741 16.568 18.8106 16.4908 18.8383C16.3349 18.8965 16.1703 18.9461 15.9969 18.9839L15.8993 19.0116C15.8774 19.0175 15.8556 19.0247 15.8337 19.0306L14.9202 19.0961C14.8124 19.0918 14.7002 19.0772 14.5822 19.0626L14.5006 19.0524C14.4729 19.0481 14.4307 19.0451 14.3884 19.0422L14.3564 19.0393L14.3097 19.0306H14.2733C14.2063 19.0277 14.1407 19.0277 14.0752 19.0277C12.5148 19.0277 10.9763 19.692 9.85149 20.8488C8.7311 22.0013 8.11335 23.5544 8.15706 25.106V25.1527L8.16726 25.1993C8.176 25.243 8.17746 25.2867 8.18183 25.3304C8.18474 25.3829 8.19057 25.4339 8.1964 25.4863C8.19785 25.5169 8.20514 25.5737 8.21097 25.6276C8.21825 25.6903 8.22554 25.75 8.22554 25.8127V25.8345L8.15997 26.7043C8.1556 26.7232 8.12646 26.8223 8.11772 26.8544C8.07401 27.0423 8.02448 27.2084 7.96911 27.357C7.93852 27.4401 7.90792 27.5115 7.8715 27.5872C7.80156 27.7417 7.72435 27.8903 7.63693 28.0403C7.59905 28.1015 7.55388 28.1744 7.50726 28.2443C7.35574 28.4628 7.20567 28.6479 7.04541 28.8096C6.27905 29.5759 5.25919 29.9999 4.17231 29.9999V29.9926Z" fill="#0095F5"/>
<path d="M15.1508 29.9926C14.0639 29.9926 13.0426 29.5687 12.2733 28.8008C11.5055 28.033 11.083 27.0132 11.083 25.9263C11.083 24.8409 11.5055 23.821 12.2719 23.0546C12.4292 22.8973 12.607 22.7531 12.8488 22.5841C12.9086 22.5433 12.9741 22.5039 13.0426 22.4646C13.1912 22.3757 13.3354 22.2999 13.4841 22.2315C13.5627 22.195 13.6414 22.1601 13.7201 22.1295C13.8716 22.0741 14.0348 22.026 14.2096 21.9867C14.2096 21.9867 14.3524 21.9459 14.3713 21.9401L15.2907 21.8731C15.3985 21.8774 15.5165 21.8935 15.6389 21.9095L15.7074 21.9182C15.7525 21.9226 15.7904 21.927 15.8283 21.927C15.8429 21.927 15.8589 21.927 15.8734 21.9299L15.9026 21.9343L15.9405 21.9386C16.0075 21.9401 16.076 21.943 16.143 21.943C17.7005 21.943 19.2375 21.2786 20.3594 20.1233C21.4798 18.9708 22.0975 17.4192 22.0524 15.8675L22.0465 15.6781L22.0291 15.6577C22.0291 15.6577 22.0291 15.6446 22.0291 15.6373C22.0261 15.5936 22.0247 15.5485 22.0203 15.5033L22.0057 15.3736C21.997 15.3022 21.9883 15.2308 21.9853 15.1595L22.048 14.2795C22.0524 14.2576 22.0844 14.1498 22.0917 14.1163C22.1427 13.9065 22.1893 13.752 22.2403 13.6151C22.2694 13.5335 22.3044 13.4577 22.3408 13.3791C22.4064 13.2377 22.4822 13.0935 22.5754 12.9347L22.5929 12.9056C22.6249 12.8516 22.6541 12.7992 22.692 12.7482C22.8581 12.5063 23.0067 12.3228 23.1626 12.1669C23.9304 11.3991 24.9531 10.9751 26.04 10.9751C27.1269 10.9751 28.1453 11.3976 28.9131 12.1654C30.4968 13.7506 30.4968 16.3308 28.9131 17.9174C28.7587 18.0704 28.5766 18.219 28.3376 18.3837C28.291 18.4157 28.2473 18.442 28.2036 18.4682L28.1322 18.5119C27.9967 18.592 27.8481 18.6707 27.7039 18.7363C27.6223 18.7727 27.5465 18.8076 27.4649 18.8382C27.3221 18.8921 27.1662 18.9373 26.9681 18.9839C26.9288 18.9927 26.8967 19.0029 26.8647 19.0131C26.8428 19.0189 26.8224 19.0262 26.8006 19.0306L25.8972 19.0932C25.7647 19.0874 25.6219 19.0684 25.4835 19.0495C25.4369 19.0437 25.399 19.0422 25.364 19.0393C25.3509 19.0393 25.3363 19.0393 25.3232 19.0364L25.246 19.0276C25.179 19.0247 25.1119 19.0233 25.0449 19.0233C23.4875 19.0233 21.9489 19.6876 20.8256 20.843C19.7067 21.9954 19.0889 23.5471 19.1356 25.1002V25.1454L19.1458 25.1905C19.1545 25.2372 19.156 25.2838 19.1603 25.3289C19.1632 25.377 19.1676 25.4236 19.172 25.4688C19.1749 25.5067 19.1807 25.5562 19.1865 25.6043C19.1953 25.6728 19.2026 25.7427 19.2055 25.8112L19.1385 26.7028C19.1341 26.7218 19.0991 26.8427 19.0991 26.8427C19.0554 27.0321 19.0073 27.1967 18.9505 27.3526C18.9228 27.4255 18.8908 27.4969 18.8587 27.5697L18.8471 27.596C18.7801 27.7416 18.7043 27.8844 18.6198 28.0258C18.579 28.0957 18.5367 28.1627 18.4945 28.2268C18.3357 28.4585 18.1856 28.642 18.0239 28.8038C17.2605 29.5687 16.2406 29.9897 15.1566 29.9897L15.1508 29.9926Z" fill="#003E99"/>
<path d="M4.17376 19.0175C3.08688 19.0175 2.06702 18.595 1.2992 17.8272C0.531394 17.0579 0.107422 16.0381 0.107422 14.9512C0.107422 13.8658 0.52848 12.8459 1.29629 12.0795C1.45364 11.9222 1.63722 11.7736 1.87324 11.6104C1.93443 11.5696 2.00437 11.5259 2.07284 11.4851C2.21271 11.4021 2.35695 11.3263 2.50993 11.2549C2.5886 11.2185 2.66728 11.1835 2.75032 11.1529C2.89893 11.0976 3.06502 11.0495 3.23694 11.0116L3.34039 10.9825C3.35933 10.9766 3.37827 10.9708 3.39721 10.9664L4.31654 10.9009C4.43601 10.9053 4.56568 10.9227 4.70118 10.9417L4.72886 10.946C4.77548 10.9504 4.81336 10.9533 4.84978 10.9548C4.8629 10.9548 4.87601 10.9548 4.88912 10.9577L4.92846 10.965H4.96634C5.03482 10.9679 5.10184 10.9694 5.16886 10.9694C6.72488 10.9694 8.26195 10.3064 9.38526 9.14963C10.5057 7.99718 11.1219 6.44408 11.0768 4.89243V4.84726L11.0666 4.80355C11.0578 4.75402 11.0564 4.70448 11.052 4.65495C11.0491 4.61415 11.0476 4.57336 11.0433 4.52965L11.0287 4.40435C11.02 4.33005 11.0098 4.25429 11.0083 4.17852L11.0695 3.32475L11.0753 3.30581V3.28833C11.0797 3.26939 11.1132 3.15575 11.1132 3.15575C11.1642 2.93721 11.2108 2.77986 11.2618 2.63999C11.2909 2.56277 11.3274 2.48701 11.3638 2.40688C11.4294 2.26118 11.508 2.11257 11.5969 1.96251L11.6115 1.9392C11.6464 1.88092 11.6814 1.82264 11.7207 1.76291C11.8825 1.52979 12.0296 1.34622 12.1855 1.19178C12.9533 0.423971 13.9761 0 15.063 0C16.1499 0 17.1697 0.422515 17.939 1.19033C19.5242 2.77548 19.5227 5.35574 17.9375 6.9409C17.7802 7.09825 17.5937 7.24977 17.365 7.40566C17.3023 7.44937 17.2484 7.48142 17.193 7.51348L17.1624 7.53096C17.0138 7.61983 16.8667 7.69705 16.7283 7.76116C16.6467 7.79904 16.5695 7.834 16.4908 7.86314C16.3378 7.91996 16.1761 7.96804 15.994 8.0103C15.9561 8.01904 15.9211 8.02924 15.8862 8.03943C15.8658 8.04526 15.8439 8.05255 15.8221 8.05692L14.9202 8.11957C14.8066 8.11374 14.6842 8.09917 14.556 8.08169L14.5006 8.0744C14.4584 8.06857 14.4205 8.06712 14.384 8.06566C14.3695 8.06566 14.3535 8.06566 14.3389 8.06275L14.3083 8.05838L14.2689 8.05546C14.2019 8.05255 14.1349 8.05109 14.0679 8.05109C12.5119 8.05109 10.9733 8.714 9.85003 9.86936C8.72964 11.0218 8.11189 12.5749 8.15705 14.128V14.1732L8.1658 14.2183C8.17599 14.2635 8.17745 14.3116 8.18037 14.3568C8.18328 14.4048 8.18765 14.4515 8.19202 14.4995C8.19639 14.5374 8.20076 14.5855 8.20659 14.6336C8.21388 14.7021 8.22262 14.7676 8.22407 14.8361L8.15851 15.7219C8.15414 15.7452 8.1454 15.7685 8.13957 15.7919L8.11626 15.8705C8.07109 16.0687 8.02302 16.2333 7.96911 16.3805C7.93997 16.4577 7.90355 16.5364 7.86567 16.6179C7.79865 16.7636 7.72288 16.9079 7.63547 17.055C7.59322 17.125 7.55388 17.192 7.51163 17.2546C7.34408 17.4965 7.2013 17.6742 7.04395 17.8301C6.27614 18.5979 5.25627 19.019 4.1723 19.019L4.17376 19.0175Z" fill="#003E99"/>
<path d="M37.5821 30.6559C37.5298 30.5463 37.4609 30.4073 37.3752 30.2392C37.2896 30.071 37.1956 29.8882 37.0974 29.6908C36.9992 29.4952 36.8927 29.2923 36.7799 29.0839C36.6671 28.8756 36.5626 28.68 36.4623 28.4953C36.3621 28.3107 36.2701 28.1444 36.1845 27.9982C36.0988 27.8519 36.0299 27.7404 35.9777 27.6618C35.9192 28.2011 35.8732 28.7842 35.8377 29.4111C35.8001 30.0381 35.7688 30.6724 35.7437 31.3122H35C35.0209 30.9009 35.0439 30.4878 35.071 30.0692C35.0982 29.6524 35.1274 29.2411 35.1609 28.8372C35.1943 28.4332 35.2319 28.0384 35.2695 27.6563C35.3092 27.2725 35.351 26.9105 35.399 26.5669H36.0633C36.2033 26.768 36.3558 27.0056 36.5166 27.2798C36.6775 27.554 36.8404 27.841 37.0013 28.1389C37.1622 28.4369 37.3188 28.7366 37.4713 29.0364C37.6238 29.3362 37.7617 29.6085 37.8871 29.8553C38.0124 29.6085 38.1503 29.3362 38.3028 29.0364C38.4532 28.7366 38.6099 28.4387 38.7728 28.1389C38.9337 27.8391 39.0966 27.554 39.2575 27.2798C39.4183 27.0056 39.5708 26.768 39.7108 26.5669H40.3751C40.5527 28.0969 40.6864 29.678 40.7741 31.3122H40.0304C40.0033 30.6724 39.9719 30.0399 39.9364 29.4111C39.9009 28.7842 39.8529 28.2011 39.7944 27.6618C39.7421 27.7404 39.6732 27.8519 39.5875 27.9982C39.5019 28.1444 39.4079 28.3089 39.3097 28.4953C39.2094 28.68 39.105 28.8774 38.9922 29.0839C38.8794 29.2923 38.7749 29.4934 38.6746 29.6908C38.5744 29.8864 38.4824 30.0692 38.3968 30.2392C38.3111 30.4073 38.2422 30.5481 38.19 30.6559H37.58H37.5821Z" fill="#565656"/>
<path d="M43.9063 27.6631C44.1987 27.6631 44.4453 27.696 44.6458 27.7618C44.8464 27.8276 45.0093 27.9208 45.1305 28.0433C45.2537 28.1639 45.3394 28.3083 45.3916 28.4747C45.4438 28.641 45.4689 28.8256 45.4689 29.0267V31.2531C45.4062 31.2623 45.3185 31.275 45.2057 31.2915C45.0929 31.3079 44.9675 31.3226 44.8255 31.3354C44.6834 31.3482 44.5309 31.361 44.368 31.3738C44.2029 31.3847 44.04 31.3902 43.8791 31.3902C43.6493 31.3902 43.4383 31.3701 43.2461 31.3281C43.0519 31.2878 42.8868 31.222 42.7448 31.1325C42.6027 31.0429 42.4941 30.9259 42.4168 30.7797C42.3395 30.6334 42.2998 30.458 42.2998 30.2532C42.2998 30.0485 42.3458 29.8877 42.4377 29.7469C42.5296 29.6062 42.6529 29.491 42.8095 29.4051C42.9662 29.3192 43.148 29.2552 43.3569 29.2132C43.5658 29.1711 43.7851 29.151 44.0149 29.151C44.088 29.151 44.1632 29.1547 44.2426 29.162C44.322 29.1693 44.3951 29.1784 44.4661 29.1894C44.5372 29.2004 44.5978 29.2113 44.65 29.2205C44.7022 29.2296 44.7377 29.2369 44.7586 29.2406V29.0633C44.7586 28.9591 44.7461 28.8549 44.7189 28.7525C44.6918 28.6502 44.6458 28.5588 44.579 28.4783C44.51 28.3979 44.4181 28.3339 44.3011 28.2864C44.1841 28.2389 44.0316 28.2151 43.8436 28.2151C43.6034 28.2151 43.3945 28.2297 43.2127 28.259C43.0331 28.2882 42.8973 28.3193 42.8095 28.3522L42.7239 27.8239C42.8179 27.7874 42.9746 27.7527 43.1939 27.7179C43.4133 27.6832 43.6514 27.6667 43.9063 27.6667V27.6631ZM43.969 30.8546C44.1403 30.8546 44.2928 30.851 44.4265 30.8437C44.5602 30.8363 44.6709 30.8236 44.7586 30.8053V29.7433C44.7064 29.7213 44.6207 29.7012 44.5037 29.6848C44.3868 29.6683 44.2447 29.661 44.0776 29.661C43.969 29.661 43.852 29.6683 43.7287 29.6811C43.6055 29.6939 43.4947 29.7231 43.3924 29.767C43.29 29.8109 43.2044 29.8694 43.1375 29.9443C43.0707 30.0193 43.0351 30.1198 43.0351 30.2423C43.0351 30.4708 43.1187 30.6298 43.2858 30.7175C43.453 30.8053 43.6807 30.851 43.9669 30.851L43.969 30.8546Z" fill="#565656"/>
<path d="M48.8503 27.6777C48.913 27.6777 48.984 27.6814 49.0655 27.6887C49.1469 27.696 49.2263 27.7052 49.3036 27.7161C49.3809 27.7271 49.454 27.7399 49.5188 27.7508C49.5836 27.7618 49.6316 27.7728 49.6629 27.7819L49.5376 28.3358C49.4791 28.3175 49.3851 28.2956 49.2514 28.27C49.1177 28.2444 48.9464 28.2316 48.7396 28.2316C48.6038 28.2316 48.4701 28.2444 48.3364 28.27C48.2027 28.2956 48.115 28.312 48.0732 28.3212V31.3135H47.3462V27.9026C47.5175 27.8477 47.7327 27.7965 47.9875 27.749C48.2424 27.7015 48.5307 27.6777 48.8482 27.6777H48.8503Z" fill="#565656"/>
<path d="M52.5143 29.3563C52.671 29.4605 52.836 29.5921 53.0115 29.7475C53.187 29.9028 53.3583 30.071 53.5275 30.2502C53.6967 30.4311 53.8575 30.6139 54.0079 30.7985C54.1584 30.9831 54.2858 31.155 54.3902 31.3158H53.5379C53.4293 31.1568 53.3019 30.9923 53.1577 30.8259C53.0136 30.6596 52.8652 30.4988 52.7086 30.347C52.5519 30.1935 52.3931 30.0546 52.2302 29.9266C52.0693 29.7987 51.9147 29.6908 51.7685 29.6049V31.3177H51.0415V26.1136L51.7685 26.0039V29.2503C51.8938 29.1406 52.0317 29.02 52.1842 28.8865C52.3346 28.7549 52.485 28.6197 52.6292 28.4826C52.7754 28.3455 52.9133 28.2139 53.0449 28.0896C53.1765 27.9653 53.2872 27.8538 53.3812 27.7569H54.2336C54.1145 27.8702 53.9829 27.9963 53.8429 28.1334C53.7009 28.2705 53.5567 28.4094 53.4042 28.5484C53.2538 28.6873 53.0992 28.8262 52.9467 28.967C52.7921 29.1059 52.648 29.2375 52.5122 29.36L52.5143 29.3563Z" fill="#565656"/>
<path d="M55.3701 29.5405C55.3701 29.2261 55.4223 28.9501 55.5268 28.7161C55.6312 28.4803 55.7691 28.2865 55.9404 28.1312C56.1117 27.9758 56.3102 27.8588 56.5358 27.782C56.7593 27.7053 56.9891 27.665 57.2252 27.665C57.7725 27.665 58.1924 27.8149 58.4849 28.1129C58.7774 28.4127 58.9236 28.8678 58.9236 29.4783V29.5843C58.9236 29.6282 58.9215 29.6684 58.9152 29.705H56.1284C56.1598 30.0742 56.283 30.3557 56.4961 30.5477C56.7092 30.7396 57.0434 30.8346 57.4968 30.8346C57.7516 30.8346 57.9668 30.8145 58.1423 30.7762C58.3178 30.7378 58.4494 30.6994 58.5371 30.6628L58.6395 31.1966C58.5496 31.2368 58.3951 31.2807 58.1736 31.3264C57.9522 31.3721 57.7015 31.394 57.4195 31.394C57.0643 31.394 56.7572 31.3465 56.5003 31.2532C56.2412 31.16 56.0303 31.0302 55.8631 30.8657C55.696 30.7012 55.5728 30.5056 55.4913 30.2808C55.4098 30.0541 55.3701 29.8074 55.3701 29.5387V29.5405ZM58.1632 29.1913C58.1673 28.9044 58.0859 28.6667 57.9167 28.4821C57.7475 28.2975 57.5135 28.2043 57.2168 28.2043C57.0497 28.2043 56.9014 28.2335 56.774 28.2902C56.6465 28.3469 56.5379 28.4218 56.4502 28.5132C56.3603 28.6046 56.2914 28.7088 56.2433 28.8276C56.1932 28.9464 56.1619 29.0671 56.1452 29.1913H58.1653H58.1632Z" fill="#565656"/>
<path d="M61.3262 27.753H62.868V28.2867H61.3262V29.93C61.3262 30.1073 61.3409 30.2554 61.3722 30.3724C61.4035 30.4894 61.4495 30.5808 61.5143 30.6466C61.5769 30.7124 61.6542 30.7599 61.7482 30.7873C61.8422 30.8147 61.953 30.8275 62.0762 30.8275C62.2956 30.8275 62.471 30.8056 62.6047 30.7617C62.7384 30.7179 62.8304 30.6868 62.8826 30.6685L63.0246 31.1968C62.9515 31.2297 62.8241 31.2681 62.6403 31.3174C62.4585 31.3649 62.2496 31.3887 62.0135 31.3887C61.7378 31.3887 61.508 31.3576 61.3283 31.2955C61.1487 31.2333 61.0045 31.1419 60.8938 31.0176C60.7852 30.8952 60.7079 30.7435 60.664 30.5625C60.6201 30.3815 60.5972 30.1731 60.5972 29.9355V26.7586L61.3242 26.6489V27.7512L61.3262 27.753Z" fill="#565656"/>
<path d="M66.9917 26.5684H67.75V31.3136H66.9917V26.5684Z" fill="#565656"/>
<path d="M69.7236 27.8554C69.8908 27.8188 70.1122 27.7805 70.3879 27.7384C70.6637 27.6964 70.9833 27.6763 71.3426 27.6763C71.6664 27.6763 71.9338 27.7165 72.149 27.7969C72.3621 27.8773 72.5334 27.9888 72.6608 28.1332C72.7883 28.2777 72.8781 28.4495 72.9303 28.6505C72.9825 28.8516 73.0076 29.0728 73.0076 29.3141V31.3138H72.2806V29.4512C72.2806 29.2318 72.2639 29.0454 72.2305 28.89C72.1971 28.7346 72.1407 28.6085 72.0634 28.5135C71.9861 28.4184 71.8816 28.3471 71.75 28.3051C71.6205 28.2612 71.4575 28.2393 71.2653 28.2393C71.1881 28.2393 71.1066 28.2411 71.023 28.2466C70.9395 28.2521 70.8601 28.2575 70.7849 28.263C70.7097 28.2685 70.6407 28.2777 70.5822 28.2868C70.5216 28.2959 70.4799 28.3032 70.4527 28.3069V31.3138H69.7257V27.8554H69.7236Z" fill="#565656"/>
<path d="M75.5697 27.753H77.1114V28.2867H75.5697V29.93C75.5697 30.1073 75.5843 30.2554 75.6156 30.3724C75.647 30.4894 75.695 30.5808 75.7577 30.6466C75.8204 30.7124 75.8977 30.7599 75.9917 30.7873C76.0857 30.8147 76.1943 30.8275 76.3196 30.8275C76.539 30.8275 76.7145 30.8056 76.8482 30.7617C76.9819 30.7179 77.0738 30.6868 77.126 30.6685L77.266 31.1968C77.1929 31.2297 77.0654 31.2681 76.8816 31.3174C76.6998 31.3649 76.4909 31.3887 76.2549 31.3887C75.9791 31.3887 75.7493 31.3576 75.5697 31.2955C75.39 31.2333 75.2459 31.1419 75.1352 31.0176C75.0244 30.8933 74.9492 30.7435 74.9033 30.5625C74.8573 30.3815 74.8364 30.1731 74.8364 29.9355V26.7586L75.5634 26.6489V27.7512L75.5697 27.753Z" fill="#565656"/>
<path d="M78.402 29.5405C78.402 29.2261 78.4542 28.9501 78.5587 28.7161C78.6631 28.4803 78.801 28.2865 78.9723 28.1312C79.1457 27.9758 79.3421 27.8588 79.5677 27.782C79.7912 27.7053 80.021 27.665 80.2571 27.665C80.8044 27.665 81.2243 27.8149 81.5168 28.1129C81.8092 28.4127 81.9555 28.8678 81.9555 29.4783V29.5843C81.9555 29.6282 81.9534 29.6684 81.9471 29.705H79.1603C79.1917 30.0742 79.3149 30.3557 79.528 30.5477C79.7411 30.7396 80.0753 30.8346 80.5286 30.8346C80.7835 30.8346 80.9987 30.8145 81.1742 30.7762C81.3496 30.7378 81.4812 30.6994 81.569 30.6628L81.6713 31.1966C81.5815 31.2368 81.4269 31.2807 81.2055 31.3264C80.9841 31.3721 80.7313 31.394 80.4493 31.394C80.0941 31.394 79.787 31.3465 79.5301 31.2532C79.271 31.16 79.06 31.0302 78.8929 30.8657C78.7258 30.7012 78.6025 30.5056 78.5211 30.2808C78.4396 30.0541 78.3999 29.8074 78.3999 29.5387L78.402 29.5405ZM81.1971 29.1913C81.2013 28.9044 81.1198 28.6667 80.9506 28.4821C80.7814 28.2975 80.5474 28.2043 80.2508 28.2043C80.0837 28.2043 79.9353 28.2335 79.8079 28.2902C79.6805 28.3469 79.5719 28.4218 79.4841 28.5132C79.3943 28.6046 79.3254 28.7088 79.2773 28.8276C79.2272 28.9464 79.1958 29.0671 79.1791 29.1913H81.1992H81.1971Z" fill="#565656"/>
<path d="M84.8983 31.3832C84.4492 31.3741 84.1317 31.29 83.9436 31.1291C83.7556 30.9683 83.6616 30.7197 83.6616 30.3833V26.1097L84.3886 26V30.281C84.3886 30.3852 84.3991 30.4729 84.4199 30.5405C84.4408 30.6082 84.4743 30.663 84.5223 30.7051C84.5704 30.7471 84.6309 30.7763 84.7103 30.7983C84.7897 30.8202 84.8858 30.8367 85.0007 30.8495L84.8983 31.3832Z" fill="#565656"/>
<path d="M87.7084 31.3832C87.2592 31.3741 86.9417 31.29 86.7537 31.1291C86.5657 30.9683 86.4717 30.7197 86.4717 30.3833V26.1097L87.1987 26V30.281C87.1987 30.3852 87.2091 30.4729 87.23 30.5405C87.2509 30.6082 87.2843 30.663 87.3324 30.7051C87.3804 30.7453 87.4431 30.7763 87.5204 30.7983C87.5998 30.8184 87.6959 30.8367 87.8108 30.8495L87.7084 31.3832Z" fill="#565656"/>
<path d="M89.658 27.1096C89.5264 27.1096 89.4157 27.0713 89.3259 26.9963C89.2339 26.9214 89.188 26.819 89.188 26.6911C89.188 26.5631 89.2339 26.4607 89.3259 26.3858C89.4178 26.3108 89.5285 26.2725 89.658 26.2725C89.7875 26.2725 89.9003 26.3108 89.9902 26.3858C90.08 26.4607 90.1281 26.5631 90.1281 26.6911C90.1281 26.819 90.0821 26.9195 89.9902 26.9963C89.8983 27.0713 89.7875 27.1096 89.658 27.1096ZM90.0257 31.3139H89.2987V27.7531H90.0257V31.3139Z" fill="#565656"/>
<path d="M94.5017 30.957C94.439 30.9936 94.3179 31.0411 94.1382 31.0978C93.9586 31.1544 93.7476 31.1837 93.5073 31.1837C93.2671 31.1837 93.031 31.1489 92.8138 31.0813C92.5965 31.0137 92.4085 30.9058 92.2455 30.7633C92.0826 30.6189 91.9552 30.4397 91.8632 30.2258C91.7692 30.012 91.7212 29.7561 91.7212 29.4581C91.7212 29.1986 91.7651 28.9591 91.8549 28.7416C91.9447 28.5241 92.0721 28.3376 92.2414 28.1804C92.4106 28.0232 92.6174 27.8989 92.8639 27.8112C93.1083 27.7216 93.3862 27.6777 93.6933 27.6777C94.0317 27.6777 94.3283 27.6997 94.5811 27.7435C94.8339 27.7874 95.047 27.8276 95.2183 27.8642V31.0411C95.2183 31.5895 95.0574 31.9861 94.7336 32.2329C94.4098 32.4797 93.9189 32.6021 93.2629 32.6021C93.008 32.6021 92.7657 32.5839 92.5401 32.5473C92.3124 32.5107 92.116 32.4669 91.9489 32.4175L92.0826 31.8637C92.2288 31.913 92.4064 31.9587 92.6174 31.9971C92.8284 32.0355 93.0498 32.0556 93.2796 32.0556C93.712 32.0556 94.0233 31.9806 94.2155 31.8289C94.4056 31.679 94.5017 31.4378 94.5017 31.1106V30.9607V30.957ZM94.4933 28.3138C94.4202 28.2956 94.3221 28.2791 94.2009 28.2627C94.0776 28.2462 93.9126 28.2389 93.7037 28.2389C93.313 28.2389 93.0122 28.3504 92.7991 28.5752C92.5881 28.7982 92.4816 29.0962 92.4816 29.4654C92.4816 29.6702 92.5109 29.8475 92.5714 29.9919C92.632 30.1381 92.7114 30.2587 92.8138 30.3556C92.9161 30.4525 93.0331 30.522 93.1668 30.5677C93.3005 30.6134 93.4363 30.6353 93.5783 30.6353C93.7726 30.6353 93.9481 30.6115 94.1111 30.564C94.2719 30.5165 94.4014 30.4598 94.4933 30.3958V28.3138Z" fill="#565656"/>
<path d="M96.9189 29.5405C96.9189 29.2261 96.9712 28.9501 97.0756 28.7161C97.1801 28.4803 97.318 28.2865 97.4913 28.1312C97.6626 27.9758 97.8611 27.8588 98.0867 27.782C98.3102 27.7053 98.54 27.665 98.7761 27.665C99.3234 27.665 99.7433 27.8149 100.036 28.1129C100.328 28.4127 100.474 28.8678 100.474 29.4783V29.5843C100.474 29.6282 100.472 29.6684 100.466 29.705H97.6793C97.7107 30.0742 97.8339 30.3557 98.047 30.5477C98.2601 30.7396 98.5943 30.8346 99.0498 30.8346C99.3046 30.8346 99.5198 30.8145 99.6953 30.7762C99.8708 30.7378 100.002 30.6994 100.09 30.6628L100.192 31.1966C100.103 31.2368 99.9481 31.2807 99.7266 31.3264C99.5052 31.3721 99.2524 31.394 98.9704 31.394C98.6152 31.394 98.3082 31.3465 98.0512 31.2532C97.7922 31.16 97.5812 31.0302 97.414 30.8657C97.2469 30.7012 97.1237 30.5056 97.0422 30.2808C96.9607 30.0541 96.921 29.8074 96.921 29.5387L96.9189 29.5405ZM99.7141 29.1913C99.7183 28.9044 99.6368 28.6667 99.4676 28.4821C99.2984 28.2975 99.0644 28.2043 98.7677 28.2043C98.6006 28.2043 98.4544 28.2335 98.3249 28.2902C98.1974 28.3469 98.0888 28.4218 98.0011 28.5132C97.9112 28.6046 97.8423 28.7088 97.7943 28.8276C97.7441 28.9464 97.7128 29.0671 97.6961 29.1913H99.7162H99.7141Z" fill="#565656"/>
<path d="M102.196 27.8554C102.363 27.8188 102.585 27.7805 102.861 27.7384C103.136 27.6964 103.456 27.6763 103.815 27.6763C104.139 27.6763 104.407 27.7165 104.622 27.7969C104.835 27.8773 105.006 27.9888 105.133 28.1332C105.261 28.2777 105.351 28.4495 105.403 28.6505C105.455 28.8516 105.482 29.0728 105.482 29.3141V31.3138H104.755V29.4512C104.755 29.2318 104.739 29.0454 104.705 28.89C104.672 28.7346 104.615 28.6085 104.538 28.5135C104.459 28.4184 104.356 28.3471 104.225 28.3051C104.093 28.2612 103.932 28.2393 103.74 28.2393C103.663 28.2393 103.581 28.2411 103.498 28.2466C103.414 28.2521 103.335 28.2575 103.26 28.263C103.184 28.2685 103.115 28.2777 103.055 28.2868C102.994 28.2959 102.953 28.3032 102.925 28.3069V31.3138H102.198V27.8554H102.196Z" fill="#565656"/>
<path d="M109.13 31.3957C108.802 31.3957 108.514 31.35 108.265 31.2586C108.016 31.1672 107.81 31.0392 107.638 30.8747C107.469 30.7102 107.342 30.5146 107.258 30.2898C107.175 30.0631 107.133 29.8145 107.133 29.5404C107.133 29.2662 107.179 29.0157 107.271 28.7873C107.363 28.5588 107.49 28.3614 107.659 28.195C107.826 28.0287 108.031 27.8989 108.273 27.8038C108.516 27.7106 108.785 27.6631 109.084 27.6631C109.266 27.6631 109.45 27.6759 109.631 27.7033C109.813 27.7307 109.989 27.7746 110.156 27.8331L109.991 28.3741C109.88 28.3284 109.755 28.2919 109.61 28.2645C109.466 28.2371 109.314 28.2243 109.153 28.2243C108.746 28.2243 108.434 28.3358 108.217 28.5606C108 28.7854 107.891 29.1108 107.891 29.5404C107.891 29.7323 107.916 29.9078 107.966 30.0686C108.016 30.2277 108.094 30.3647 108.2 30.4799C108.307 30.5932 108.445 30.6828 108.612 30.7431C108.779 30.8034 108.982 30.8363 109.222 30.8363C109.414 30.8363 109.59 30.8199 109.746 30.7888C109.903 30.7577 110.026 30.723 110.114 30.6865L110.216 31.2202C110.174 31.244 110.114 31.2641 110.037 31.286C109.959 31.3061 109.869 31.3244 109.771 31.3408C109.671 31.3573 109.567 31.3701 109.454 31.3811C109.341 31.392 109.234 31.3975 109.13 31.3975V31.3957Z" fill="#565656"/>
<path d="M111.446 29.5405C111.446 29.2261 111.499 28.9501 111.603 28.7161C111.707 28.4803 111.845 28.2865 112.017 28.1312C112.188 27.9758 112.386 27.8588 112.612 27.782C112.836 27.7053 113.065 27.665 113.301 27.665C113.849 27.665 114.269 27.8149 114.561 28.1129C114.854 28.4127 115 28.8678 115 29.4783V29.5843C115 29.6282 114.998 29.6684 114.991 29.705H112.205C112.236 30.0742 112.359 30.3557 112.572 30.5477C112.785 30.7396 113.12 30.8346 113.573 30.8346C113.828 30.8346 114.043 30.8145 114.218 30.7762C114.394 30.7378 114.526 30.6994 114.613 30.6628L114.716 31.1966C114.626 31.2368 114.471 31.2807 114.25 31.3264C114.028 31.3721 113.778 31.394 113.496 31.394C113.141 31.394 112.833 31.3465 112.576 31.2532C112.317 31.16 112.106 31.0302 111.939 30.8657C111.772 30.7012 111.649 30.5056 111.567 30.2808C111.486 30.0541 111.446 29.8074 111.446 29.5387V29.5405ZM114.239 29.1913C114.244 28.9044 114.162 28.6667 113.993 28.4821C113.824 28.2975 113.59 28.2043 113.293 28.2043C113.126 28.2043 112.978 28.2335 112.85 28.2902C112.723 28.3469 112.614 28.4218 112.526 28.5132C112.436 28.6046 112.368 28.7088 112.32 28.8276C112.269 28.9464 112.238 29.0671 112.221 29.1913H114.241H114.239Z" fill="#565656"/>
<path d="M40.7386 22.5683C39.6678 22.5683 38.6013 22.5348 37.5392 22.4692C36.4771 22.4036 35.3727 22.2478 34.2275 22.0044V3.06122C35.1294 2.89221 36.1157 2.76546 37.1881 2.68095C38.2589 2.59645 39.2555 2.5542 40.1763 2.5542C41.4161 2.5542 42.5584 2.64307 43.6015 2.82228C44.6447 3.00148 45.5422 3.30598 46.294 3.7387C47.0458 4.17141 47.6329 4.73962 48.0554 5.44478C48.4779 6.14995 48.6892 7.01829 48.6892 8.05272C48.6892 9.61311 47.9374 10.8442 46.4338 11.7461C47.6737 12.2167 48.5202 12.8548 48.9704 13.6634C49.422 14.472 49.6464 15.3826 49.6464 16.3981C49.6464 18.4466 48.899 19.988 47.4056 21.021C45.9123 22.0554 43.689 22.5712 40.7386 22.5712V22.5683ZM38.5124 10.4465H40.6541C42.0076 10.4465 42.9751 10.2731 43.5578 9.9249C44.1406 9.57668 44.432 9.01867 44.432 8.24795C44.432 7.47722 44.1319 6.90464 43.5301 6.58412C42.9284 6.26504 42.0455 6.10478 40.88 6.10478C40.5041 6.10478 40.1005 6.10915 39.6678 6.11935C39.2351 6.12955 38.8504 6.15286 38.5124 6.18928V10.4465ZM38.5124 13.8018V18.8472C38.8315 18.8851 39.1797 18.9128 39.5556 18.9317C39.9315 18.9507 40.3453 18.9594 40.7955 18.9594C42.1111 18.9594 43.1732 18.7715 43.9803 18.3956C44.7889 18.0197 45.1925 17.3247 45.1925 16.3092C45.1925 15.4074 44.8545 14.7634 44.177 14.3788C43.501 13.9941 42.5321 13.8004 41.2733 13.8004H38.511L38.5124 13.8018Z" fill="#003E99"/>
<path d="M61.8236 11.2081C61.4477 11.1149 61.0063 11.0158 60.4993 10.9124C59.9923 10.8089 59.4474 10.7579 58.8646 10.7579C58.6009 10.7579 58.2862 10.7812 57.9205 10.8279C57.5548 10.8745 57.2765 10.9269 57.0886 10.9823V22.3144H52.8882V8.27675C53.64 8.0145 54.5272 7.76536 55.5515 7.52934C56.5757 7.29477 57.7165 7.17676 58.9768 7.17676C59.2026 7.17676 59.475 7.19133 59.7941 7.21901C60.1132 7.24669 60.4323 7.28457 60.7528 7.33119C61.0719 7.37782 61.3924 7.43464 61.7115 7.5002C62.0305 7.56576 62.303 7.64589 62.5288 7.73914L61.8236 11.2067V11.2081Z" fill="#003E99"/>
<path d="M69.8291 7.09229C71.0689 7.09229 72.1019 7.23361 72.9294 7.5148C73.7555 7.79745 74.4184 8.20102 74.9167 8.72698C75.415 9.25294 75.7661 9.89254 75.9745 10.6443C76.1813 11.3961 76.2848 12.2324 76.2848 13.1532V21.892C75.6831 22.0231 74.8468 22.179 73.7759 22.3567C72.7051 22.5345 71.4084 22.6248 69.8859 22.6248C68.9272 22.6248 68.0574 22.5403 67.2779 22.3713C66.4985 22.2023 65.8268 21.9255 65.263 21.5394C64.6991 21.1547 64.2664 20.6521 63.9663 20.0314C63.6662 19.4108 63.5146 18.6502 63.5146 17.7484C63.5146 16.8465 63.688 16.1516 64.0362 15.5499C64.3844 14.9481 64.8492 14.4688 65.432 14.1119C66.0148 13.7549 66.6821 13.497 67.4338 13.3368C68.1856 13.178 68.9651 13.0978 69.7737 13.0978C70.3186 13.0978 70.8023 13.1211 71.2263 13.1678C71.6488 13.2144 71.9912 13.2756 72.2549 13.3513V12.9565C72.2549 12.2426 72.0392 11.67 71.6065 11.2373C71.1738 10.8046 70.422 10.589 69.3512 10.589C68.6373 10.589 67.9321 10.6414 67.2371 10.7434C66.5422 10.8468 65.9405 10.9925 65.4334 11.1805L64.8973 7.79745C65.1406 7.72314 65.4466 7.64301 65.8137 7.55851C66.1809 7.47401 66.5786 7.39824 67.0113 7.33268C67.444 7.26712 67.8986 7.2103 68.3779 7.16368C68.8573 7.11705 69.341 7.09374 69.8305 7.09374L69.8291 7.09229ZM70.1671 19.3831C70.5808 19.3831 70.9757 19.3744 71.3516 19.3554C71.7275 19.3365 72.0276 19.3088 72.2534 19.2709V16.086C72.0844 16.0481 71.8309 16.0117 71.4929 15.9738C71.1549 15.936 70.8445 15.917 70.5619 15.917C70.1671 15.917 69.7955 15.9403 69.4488 15.9869C69.1006 16.0336 68.7961 16.1239 68.5324 16.255C68.2687 16.3862 68.0618 16.5654 67.9117 16.7912C67.7616 17.017 67.6859 17.2982 67.6859 17.6362C67.6859 18.2948 67.9073 18.7493 68.3488 19.0028C68.7903 19.2563 69.3963 19.3831 70.1671 19.3831Z" fill="#003E99"/>
<path d="M84.6842 3.20237C84.6842 3.9731 84.4351 4.57919 83.9368 5.02064C83.4385 5.4621 82.8514 5.68355 82.1754 5.68355C81.4993 5.68355 80.9107 5.46355 80.4139 5.02064C79.9156 4.57919 79.6665 3.9731 79.6665 3.20237C79.6665 2.43165 79.9156 1.82556 80.4139 1.3841C80.9122 0.942647 81.4993 0.721191 82.1754 0.721191C82.8514 0.721191 83.4385 0.942647 83.9368 1.3841C84.4351 1.82556 84.6842 2.43165 84.6842 3.20237ZM84.2894 22.3146H80.089V7.48725H84.2894V22.3146Z" fill="#003E99"/>
<path d="M88.2363 7.99444C88.9502 7.78755 89.871 7.59523 90.9987 7.41603C92.1264 7.23828 93.3109 7.14795 94.5507 7.14795C95.7906 7.14795 96.8571 7.31258 97.6934 7.64185C98.5297 7.97112 99.1911 8.43589 99.6806 9.03761C100.169 9.63933 100.517 10.3532 100.724 11.1793C100.931 12.0069 101.034 12.9277 101.034 13.9417V22.3133H96.8338V14.4487C96.8338 13.0952 96.6546 12.1365 96.2976 11.5727C95.9407 11.0089 95.2734 10.7277 94.2958 10.7277C93.9956 10.7277 93.6751 10.7422 93.3371 10.7699C92.9991 10.7976 92.6975 10.8311 92.4352 10.869V22.3133H88.2349V7.99298L88.2363 7.99444Z" fill="#003E99"/>
<path d="M109.096 19.2986C109.866 19.2986 110.411 19.2243 110.73 19.0728C111.049 18.9227 111.21 18.6313 111.21 18.1986C111.21 17.8606 111.003 17.5648 110.589 17.3113C110.175 17.0578 109.546 16.7708 108.701 16.4517C108.042 16.2069 107.446 15.9534 106.91 15.6912C106.374 15.4289 105.918 15.1128 105.542 14.7471C105.166 14.3799 104.875 13.9443 104.668 13.4358C104.461 12.9288 104.358 12.3184 104.358 11.603C104.358 10.2131 104.875 9.11307 105.908 8.30447C106.941 7.49586 108.36 7.09229 110.165 7.09229C111.067 7.09229 111.931 7.17242 112.758 7.33122C113.585 7.49149 114.243 7.66487 114.731 7.85281L113.998 11.1222C113.509 10.9532 112.978 10.8031 112.406 10.6705C111.832 10.5394 111.189 10.4739 110.475 10.4739C109.16 10.4739 108.503 10.841 108.503 11.5739C108.503 11.7429 108.53 11.8944 108.587 12.0255C108.644 12.1566 108.756 12.2834 108.925 12.4058C109.094 12.5282 109.324 12.6607 109.616 12.8021C109.907 12.9448 110.279 13.1007 110.729 13.2712C111.65 13.6121 112.41 13.9487 113.012 14.2809C113.614 14.613 114.087 14.97 114.435 15.3546C114.784 15.7393 115.027 16.1662 115.168 16.6353C115.31 17.1044 115.38 17.6479 115.38 18.2656C115.38 19.7284 114.83 20.8342 113.73 21.5845C112.63 22.3334 111.076 22.7093 109.065 22.7093C107.749 22.7093 106.655 22.5971 105.781 22.3713C104.907 22.1455 104.301 21.9575 103.963 21.8075L104.668 18.3967C105.382 18.6794 106.115 18.8994 106.867 19.0597C107.618 19.2199 108.36 19.2986 109.093 19.2986H109.096Z" fill="#003E99"/>
</svg>
